<?xml version="1.0" standalone="no"?>
<!DOCTYPE svg PUBLIC "-//W3C//DTD SVG 20010904//EN"
 "http://www.w3.org/TR/2001/REC-SVG-20010904/DTD/svg10.dtd">
<svg version="1.0" xmlns="http://www.w3.org/2000/svg"
 width="512.000000pt" height="512.000000pt" viewBox="0 0 512.000000 512.000000"
 preserveAspectRatio="xMidYMid meet">

<g transform="translate(0.000000,512.000000) scale(0.100000,-0.100000)"
fill="red" stroke="none">
<path d="M2415 5113 c-275 -15 -589 -89 -854 -199 -742 -311 -1316 -1003
-1496 -1804 -79 -350 -79 -750 1 -1110 106 -474 338 -895 684 -1240 637 -633
1526 -889 2395 -689 949 218 1699 985 1914 1955 56 250 71 602 37 854 -78 581
-321 1076 -731 1485 -449 450 -997 699 -1640 745 -135 9 -182 10 -310 3z m490
-783 c198 -42 369 -106 543 -202 l93 -52 -1248 -1248 -1248 -1248 -23 38 c-51
82 -142 283 -175 387 -70 217 -81 293 -81 550 -1 202 2 244 22 345 75 367 223
650 481 914 276 283 603 458 971 520 52 8 106 18 120 20 14 3 120 3 235 1 167
-3 230 -8 310 -25z m1275 -985 c65 -133 117 -288 151 -445 20 -91 23 -135 23
-335 1 -255 -13 -359 -76 -554 -177 -554 -616 -989 -1179 -1169 -201 -65 -281
-76 -534 -76 -203 -1 -243 2 -340 22 -207 44 -393 113 -562 210 l-83 47 1247
1247 1248 1248 23 -38 c13 -20 49 -91 82 -157z"/>
</g>
</svg>
