<?xml version="1.0" standalone="no"?>
<!DOCTYPE svg PUBLIC "-//W3C//DTD SVG 20010904//EN"
 "http://www.w3.org/TR/2001/REC-SVG-20010904/DTD/svg10.dtd">
<svg version="1.0" xmlns="http://www.w3.org/2000/svg"
 width="512.000000pt" height="512.000000pt" viewBox="0 0 512.000000 512.000000"
 preserveAspectRatio="xMidYMid meet">

<g transform="translate(0.000000,512.000000) scale(0.100000,-0.100000)"
fill="#2EA83A" stroke="none">
<path d="M1276 4834 c-368 -67 -698 -310 -869 -642 -57 -110 -101 -239 -122
-356 -23 -133 -23 -2419 0 -2552 89 -506 493 -910 999 -999 133 -23 2419 -23
2552 0 507 89 910 492 999 1000 23 134 23 2417 -1 2552 -88 506 -491 909 -998
998 -127 22 -2437 21 -2560 -1z m2532 -320 c352 -72 634 -354 706 -706 14 -67
16 -189 16 -913 0 -459 -2 -835 -5 -835 -3 0 -181 147 -397 326 -419 349 -450
371 -589 400 -122 26 -263 2 -379 -63 -27 -16 -272 -252 -620 -600 l-576 -573
-43 0 c-43 0 -47 3 -205 158 -212 207 -296 252 -476 252 -153 0 -222 -31 -468
-206 -95 -68 -175 -124 -177 -124 -3 0 -5 473 -5 1050 0 1151 -1 1119 60 1277
86 224 289 426 513 513 154 60 105 58 1390 59 1038 1 1187 -1 1255 -15z m-272
-2061 c19 -10 250 -198 514 -418 l480 -400 0 -123 c0 -138 -17 -240 -60 -349
-86 -224 -289 -427 -513 -513 -159 -62 -114 -60 -1397 -60 -1283 0 -1238 -2
-1397 60 -228 88 -436 299 -519 526 -15 41 -25 76 -23 77 100 76 513 364 536
373 44 19 122 18 169 -2 24 -10 95 -72 189 -163 171 -169 188 -182 273 -210
112 -38 266 -20 357 41 16 12 287 277 600 589 314 313 573 569 575 569 3 0 23
7 45 15 48 18 124 13 171 -12z"/>
<path d="M1562 3980 c-106 -28 -187 -75 -267 -155 -140 -140 -199 -328 -164
-521 39 -213 219 -404 434 -459 69 -18 192 -20 267 -4 164 34 320 156 395 310
48 98 63 161 63 267 0 93 -19 174 -62 262 -44 91 -168 214 -262 259 -129 62
-270 76 -404 41z m231 -316 c64 -22 130 -82 157 -145 17 -42 21 -66 18 -118
-5 -77 -25 -125 -75 -174 -49 -50 -97 -70 -174 -75 -243 -15 -372 279 -198
449 76 74 174 97 272 63z"/>
</g>
</svg>
