<?xml version="1.0" standalone="no"?>
<!DOCTYPE svg PUBLIC "-//W3C//DTD SVG 20010904//EN"
 "http://www.w3.org/TR/2001/REC-SVG-20010904/DTD/svg10.dtd">
<svg version="1.0" xmlns="http://www.w3.org/2000/svg"
 width="512.000000pt" height="512.000000pt" viewBox="0 0 512.000000 512.000000"
 preserveAspectRatio="xMidYMid meet">

<g transform="translate(0.000000,512.000000) scale(0.100000,-0.100000)"
fill="white" stroke="none">
<path d="M3551 5092 c-27 -26 -28 -32 -34 -157 -11 -231 -52 -400 -135 -558
-62 -119 -141 -215 -324 -392 -242 -235 -313 -352 -348 -568 -16 -96 -8 -302
14 -382 69 -248 262 -450 540 -565 64 -26 90 -31 128 -28 63 7 120 45 147 100
30 63 27 117 -13 212 -54 126 -69 190 -68 291 0 63 7 110 21 157 25 77 99 193
164 256 l45 44 21 -65 c28 -82 102 -207 178 -298 163 -196 186 -248 181 -411
-3 -89 0 -109 18 -143 53 -103 164 -128 284 -66 274 142 449 377 506 678 20
109 14 367 -11 483 -18 81 -58 206 -81 257 -17 36 -62 58 -98 49 -26 -6 -29
-3 -91 110 l-29 51 22 28 c37 47 29 74 -55 187 -186 246 -588 589 -858 732
-63 33 -90 33 -124 -2z"/>
<path d="M3687 2365 c-178 -49 -390 -237 -501 -446 l-44 -82 -252 -117 c-139
-64 -263 -126 -276 -137 -54 -48 -17 -143 55 -143 26 0 279 108 413 176 l27
14 15 -53 c9 -29 29 -71 45 -93 l29 -41 -1327 -613 c-729 -337 -1333 -615
-1342 -617 -11 -3 -26 20 -57 87 l-41 91 52 23 c508 228 1967 912 1980 927 41
50 1 139 -63 139 -34 0 -2110 -955 -2147 -988 -43 -38 -33 -71 113 -378 42
-89 67 -114 110 -114 9 0 664 300 1456 666 l1441 665 110 -22 c93 -18 132 -21
237 -16 225 10 368 63 486 181 110 110 154 220 154 381 -1 235 -150 435 -379
505 -74 23 -219 26 -294 5z"/>
</g>
</svg>
