<?xml version="1.0" standalone="no"?>
<!DOCTYPE svg PUBLIC "-//W3C//DTD SVG 20010904//EN"
 "http://www.w3.org/TR/2001/REC-SVG-20010904/DTD/svg10.dtd">
<svg version="1.0" xmlns="http://www.w3.org/2000/svg"
 width="512.000000pt" height="512.000000pt" viewBox="0 0 512.000000 512.000000"
 preserveAspectRatio="xMidYMid meet">

<g transform="translate(0.000000,512.000000) scale(0.100000,-0.100000)"
fill="#000000" stroke="none">
<path d="M4055 5110 c-170 -34 -302 -119 -539 -350 -169 -164 -198 -218 -166
-307 12 -32 760 -787 802 -809 36 -19 102 -18 144 2 69 33 104 111 84 187 -10
36 -53 83 -328 359 l-317 318 70 71 c172 174 314 239 432 194 32 -13 74 -45
138 -109 75 -74 96 -102 113 -149 39 -104 25 -175 -57 -285 -55 -73 -67 -113
-51 -171 13 -49 76 -107 125 -117 93 -17 192 62 266 211 90 182 89 348 -2 535
-36 73 -59 102 -163 206 -106 106 -131 126 -206 162 -119 57 -233 74 -345 52z"/>
<path d="M3085 4301 c-28 -13 -399 -379 -1206 -1187 l-1167 -1169 -16 -70 c-9
-38 -54 -245 -100 -459 l-85 -389 -109 -111 c-116 -117 -132 -147 -118 -213
23 -104 138 -162 229 -117 18 9 77 61 133 116 l101 99 433 94 c238 52 443 97
454 101 31 9 2365 2343 2382 2381 19 45 17 97 -5 141 -29 55 -747 767 -793
787 -49 20 -84 19 -133 -4z m-521 -1931 l-1070 -1071 -302 -66 c-167 -36 -305
-63 -308 -61 -2 3 25 139 60 303 l65 299 877 877 878 878 161 -158 c173 -172
204 -191 281 -176 51 9 119 76 128 127 15 80 -3 109 -174 283 l-159 161 77 77
77 77 240 -240 240 -240 -1071 -1070z"/>
<path d="M2560 669 c-161 -21 -315 -68 -606 -187 -293 -120 -405 -147 -581
-139 -178 7 -289 52 -495 199 -82 58 -108 72 -147 76 -61 6 -111 -16 -147 -64
-24 -31 -29 -47 -29 -95 0 -73 15 -94 129 -181 229 -172 442 -256 681 -265
218 -9 377 30 767 186 344 137 509 170 693 137 118 -21 235 -65 484 -185 213
-103 266 -122 388 -140 270 -41 593 50 798 226 84 71 116 118 122 176 9 89
-70 176 -160 177 -52 0 -90 -22 -167 -94 -107 -101 -239 -153 -411 -163 -154
-9 -217 8 -441 118 -411 201 -616 252 -878 218z"/>
</g>
</svg>
